<mxfile host="app.diagrams.net" modified="2023-05-15T03:03:38.354Z" agent="Mozilla/5.0 (Windows NT 10.0; Win64; x64) AppleWebKit/537.36 (KHTML, like Gecko) Chrome/113.0.0.0 Safari/537.36" version="21.3.0" etag="cmOUuV2cCFtqDawdnFgq" type="github">
  <diagram name="Page-1" id="pCu3KsHrHqbcKpO7J7Ve">
    <mxGraphModel>
      <root>
        <mxCell id="0" />
        <mxCell id="1" parent="0" />
      </root>
    </mxGraphModel>
  </diagram>
</mxfile>
